<svg xmlns="http://www.w3.org/2000/svg" width="271.217" height="258.661" viewBox="0 0 271.217 258.661">
  <g id="Group_3648" data-name="Group 3648" transform="translate(-371.779 -685.52)">
    <path id="Path_968" data-name="Path 968" d="M509.421,146.635H508.2V113.114a19.4,19.4,0,0,0-19.4-19.4h-71.02a19.4,19.4,0,0,0-19.4,19.4v183.9a19.4,19.4,0,0,0,19.4,19.4H488.8a19.4,19.4,0,0,0,19.4-19.4V170.5h1.222Z" transform="translate(55.055 627.186)" fill="#3f3d56"/>
    <path id="Path_969" data-name="Path 969" d="M512.848,119.242v186.5a14.714,14.714,0,0,1-14.707,14.712H425.662a14.717,14.717,0,0,1-14.719-14.714V119.242a14.716,14.716,0,0,1,14.718-14.712h8.792a7,7,0,0,0,6.473,9.632h41.32a7,7,0,0,0,6.473-9.632h9.418a14.714,14.714,0,0,1,14.712,14.707Z" transform="translate(46.426 619.758)" fill="#fff"/>
    <path id="Path_42" data-name="Path 42" d="M535.078,539.055h-64.4a1.194,1.194,0,0,1-1.193-1.193V521.887a1.194,1.194,0,0,1,1.193-1.193h64.4a1.194,1.194,0,0,1,1.193,1.193v15.976a1.194,1.194,0,0,1-1.193,1.192Zm-64.4-17.884a.716.716,0,0,0-.716.716v15.976a.716.716,0,0,0,.716.716h64.4a.716.716,0,0,0,.716-.716V521.886a.717.717,0,0,0-.716-.716Z" transform="translate(6.078 357.492)" fill="#e6e6e6"/>
    <path id="Path_43" data-name="Path 43" d="M535.022,539.33a.835.835,0,1,0,0,1.67H574.38a.835.835,0,0,0,.027-1.67H535.022Z" transform="translate(-38.353 344.696)" fill="#e6e6e6"/>
    <path id="Path_44" data-name="Path 44" d="M535.022,555.318a.835.835,0,1,0,0,1.67H574.38a.835.835,0,1,0,.027-1.67H535.022Z" transform="translate(-38.353 333.717)" fill="#e6e6e6"/>
    <path id="Path_39-2" data-name="Path 39-2" d="M535.078,624.313h-64.4a1.194,1.194,0,0,1-1.193-1.193V607.145a1.194,1.194,0,0,1,1.193-1.193h64.4a1.194,1.194,0,0,1,1.193,1.193v15.976a1.194,1.194,0,0,1-1.193,1.193Zm-64.4-17.884a.716.716,0,0,0-.716.716V623.12a.716.716,0,0,0,.716.716h64.4a.717.717,0,0,0,.716-.716V607.144a.716.716,0,0,0-.716-.716Z" transform="translate(6.078 298.949)" fill="#e6e6e6"/>
    <path id="Path_40-2" data-name="Path 40-2" d="M535.022,624.591a.835.835,0,1,0,0,1.67H574.38a.835.835,0,1,0,.064-1.669H535.022Z" transform="translate(-38.353 286.151)" fill="#e6e6e6"/>
    <path id="Path_41-2" data-name="Path 41-2" d="M535.022,640.578a.835.835,0,1,0,0,1.67H574.38a.835.835,0,0,0,.064-1.669H535.022Z" transform="translate(-38.353 275.173)" fill="#e6e6e6"/>
    <path id="Path_970" data-name="Path 970" d="M469.9,804.851H253.582c-.313,0-.568-.147-.568-.327s.254-.327.568-.327H469.9c.313,0,.568.147.568.327S470.213,804.851,469.9,804.851Z" transform="translate(154.869 139.33)" fill="#e6e6e6"/>
    <g id="Group_58" data-name="Group 58" transform="translate(416.298 915.325)">
      <path id="Path_438" data-name="Path 438" d="M280.675,730.277a6.1,6.1,0,0,0,5.893-1.038c2.064-1.732,2.711-4.586,3.237-7.229l1.557-7.816-3.26,2.245c-2.345,1.614-4.742,3.281-6.366,5.619s-2.332,5.531-1.028,8.061" transform="translate(-279.98 -714.194)" fill="#e6e6e6"/>
      <path id="Path_439" data-name="Path 439" d="M282.292,754.894a39.234,39.234,0,0,1-.545-9.04,14.216,14.216,0,0,1,2.741-7.454,12.4,12.4,0,0,1,3.181-2.883c.318-.2.611.3.294.5a11.789,11.789,0,0,0-4.664,5.626,18.887,18.887,0,0,0-1,8.14c.106,1.659.33,3.307.556,4.953a.3.3,0,0,1-.2.359.293.293,0,0,1-.359-.2Z" transform="translate(-281.094 -728.804)" fill="#f2f2f2"/>
      <path id="Path_442" data-name="Path 442" d="M293.12,771.494a4.492,4.492,0,0,0,3.914,2.02c1.981-.094,3.633-1.477,5.12-2.789l4.4-3.883-2.911-.139a17.492,17.492,0,0,0-6.236.452,5.934,5.934,0,0,0-4.2,4.261" transform="translate(-288.968 -750.201)" fill="#e6e6e6"/>
      <path id="Path_443" data-name="Path 443" d="M279.908,783.174c1.974-3.5,4.267-7.381,8.362-8.623a9.329,9.329,0,0,1,3.517-.363c.374.031.28.608-.094.576a8.669,8.669,0,0,0-5.613,1.485,14.583,14.583,0,0,0-3.858,4.163c-.639.971-1.211,1.987-1.783,3C280.256,783.735,279.724,783.5,279.908,783.174Z" transform="translate(-279.87 -755.365)" fill="#f2f2f2"/>
    </g>
    <g id="Group_60" data-name="Group 60" transform="translate(479.777 882.357)">
      <circle id="Ellipse_5-2" data-name="Ellipse 5-2" cx="5.009" cy="5.009" r="5.009" transform="translate(0 0)" fill="#6c63ff"/>
      <path id="Path_40-4" data-name="Path 40-4" d="M491.047,547.005a3.394,3.394,0,0,0,0,1.67h4.926c.058.007.105-.36.106-.821a1.863,1.863,0,0,0-.1-.849h-4.929Z" transform="translate(-488.436 -542.932)" fill="#e6e6e6"/>
    </g>
    <g id="Group_61" data-name="Group 61" transform="translate(479.777 909.073)">
      <circle id="Ellipse_5-3" data-name="Ellipse 5-3" cx="5.009" cy="5.009" r="5.009" transform="translate(0)" fill="#6c63ff"/>
      <path id="Path_40-5" data-name="Path 40-5" d="M491.047,632.263a3.394,3.394,0,0,0,0,1.67h4.926c.058.008.105-.36.106-.821a1.864,1.864,0,0,0-.1-.849h-4.929Z" transform="translate(-488.436 -628.19)" fill="#e6e6e6"/>
    </g>
    <path id="Path_2883" data-name="Path 2883" d="M825.822,787.6h-8.4a5.355,5.355,0,0,0-5.354,5.354v.175h13.756Z" transform="translate(-229.005 150.727)" fill="#2f2e41"/>
    <g id="Group_3646" data-name="Group 3646" transform="translate(371.779 685.52)">
      <path id="Path_336" data-name="Path 336" d="M469.263,424.52a3.81,3.81,0,0,0-3.484-2.331H396.232a3.772,3.772,0,0,0-3.77,3.77v87.983a3.772,3.772,0,0,0,3.77,3.77h69.549a3.775,3.775,0,0,0,3.77-3.77V425.959a3.7,3.7,0,0,0-.286-1.439Zm-.551,89.422a2.936,2.936,0,0,1-2.933,2.933H396.232a2.933,2.933,0,0,1-2.933-2.932V425.959a2.937,2.937,0,0,1,2.933-2.933h69.549a2.947,2.947,0,0,1,2.722,1.845,3.244,3.244,0,0,1,.11.331,2.912,2.912,0,0,1,.1.757Z" transform="translate(-296.067 -355.508)" fill="#3f3d56"/>
      <path id="Path_337" data-name="Path 337" d="M494.2,460.29H473.254a1.676,1.676,0,0,1,0-3.352H494.2a1.676,1.676,0,1,1,0,3.352Z" transform="translate(-335.52 -372.836)" fill="#3f3d56"/>
      <path id="Path_338" data-name="Path 338" d="M494.2,477.84H473.254a1.676,1.676,0,0,1,0-3.352H494.2a1.676,1.676,0,1,1,0,3.352Z" transform="translate(-335.52 -381.588)" fill="#3f3d56"/>
      <path id="Path_339" data-name="Path 339" d="M436.378,469.446H421.068a1.888,1.888,0,0,1-1.885-1.885V449.495a1.887,1.887,0,0,1,1.885-1.885h15.309a1.888,1.888,0,0,1,1.885,1.885V467.56a1.888,1.888,0,0,1-1.886,1.885Z" transform="translate(-309.392 -368.184)" fill="#6c63ff"/>
      <path id="Path_340" data-name="Path 340" d="M467.658,513.776H420.314a1.676,1.676,0,1,1,0-3.352h47.344a1.676,1.676,0,1,1,0,3.352Z" transform="translate(-309.12 -399.508)" fill="#ccc"/>
      <path id="Path_341" data-name="Path 341" d="M467.658,531.326H420.314a1.676,1.676,0,1,1,0-3.352h47.344a1.676,1.676,0,0,1,0,3.352Z" transform="translate(-309.12 -408.259)" fill="#ccc"/>
      <path id="Path_342" data-name="Path 342" d="M467.658,548.876H420.314a1.676,1.676,0,1,1,0-3.352h47.344a1.676,1.676,0,0,1,0,3.352Z" transform="translate(-309.12 -417.011)" fill="#ccc"/>
      <path id="Path_343" data-name="Path 343" d="M467.658,566.426H420.314a1.676,1.676,0,0,1,0-3.352h47.344a1.676,1.676,0,0,1,0,3.352Z" transform="translate(-309.12 -425.763)" fill="#ccc"/>
      <path id="Path_344" data-name="Path 344" d="M467.658,583.976H420.314a1.676,1.676,0,1,1,0-3.352h47.344a1.676,1.676,0,0,1,0,3.352Z" transform="translate(-309.12 -434.514)" fill="#ccc"/>
      <circle id="Ellipse_46" data-name="Ellipse 46" cx="10.96" cy="10.96" r="10.96" transform="translate(18.674 0)" fill="#ccc"/>
      <path id="Path_408" data-name="Path 408" d="M253.426,311.09a1.137,1.137,0,0,1-.684-.227l-.012-.009-2.576-1.972a1.144,1.144,0,1,1,1.392-1.817l1.668,1.28,3.942-5.142a1.144,1.144,0,0,1,1.6-.212h0l-.025.033.025-.033a1.146,1.146,0,0,1,.212,1.6l-4.637,6.048a1.144,1.144,0,0,1-.91.447Z" transform="translate(-224.879 -295.949)" fill="#fff"/>
      <path id="Path_410" data-name="Path 410" d="M260.616,360.477a3,3,0,0,0-2.741-1.834H203.149a2.968,2.968,0,0,0-2.966,2.966v69.23a2.968,2.968,0,0,0,2.966,2.966h54.726a2.97,2.97,0,0,0,2.966-2.966v-69.23A2.913,2.913,0,0,0,260.616,360.477Zm-.434,70.363a2.311,2.311,0,0,1-2.306,2.306H203.149a2.306,2.306,0,0,1-2.306-2.306h0V361.609a2.311,2.311,0,0,1,2.306-2.306h54.726a2.319,2.319,0,0,1,2.142,1.454,2.569,2.569,0,0,1,.087.26,2.285,2.285,0,0,1,.079.6Z" transform="translate(-200.183 -323.819)" fill="#ccc"/>
      <path id="Path_411" data-name="Path 411" d="M280.238,388.624H263.754a1.319,1.319,0,0,1,0-2.638h16.483a1.319,1.319,0,1,1,0,2.638Z" transform="translate(-231.227 -337.454)" fill="#ccc"/>
      <path id="Path_412" data-name="Path 412" d="M280.238,402.434H263.754a1.319,1.319,0,0,1,0-2.637h16.483a1.319,1.319,0,1,1,0,2.637Z" transform="translate(-231.227 -344.341)" fill="#ccc"/>
      <path id="Path_413" data-name="Path 413" d="M234.737,395.829H222.691a1.485,1.485,0,0,1-1.483-1.483V380.13a1.485,1.485,0,0,1,1.483-1.483h12.046a1.485,1.485,0,0,1,1.483,1.483v14.215A1.485,1.485,0,0,1,234.737,395.829Z" transform="translate(-210.668 -333.794)" fill="#ccc"/>
      <path id="Path_414" data-name="Path 414" d="M259.351,430.71H222.1a1.319,1.319,0,0,1,0-2.637h37.252a1.319,1.319,0,1,1,0,2.637Z" transform="translate(-210.454 -358.441)" fill="#ccc"/>
      <path id="Path_415" data-name="Path 415" d="M259.351,444.524H222.1a1.319,1.319,0,1,1,0-2.637h37.252a1.319,1.319,0,1,1,0,2.637Z" transform="translate(-210.454 -365.33)" fill="#ccc"/>
      <path id="Path_416" data-name="Path 416" d="M259.351,458.329H222.1a1.319,1.319,0,1,1,0-2.638h37.252a1.319,1.319,0,0,1,0,2.638Z" transform="translate(-210.454 -372.214)" fill="#ccc"/>
      <path id="Path_417" data-name="Path 417" d="M259.351,472.142H222.1a1.319,1.319,0,0,1,0-2.637h37.252a1.319,1.319,0,1,1,0,2.638Z" transform="translate(-210.454 -379.102)" fill="#ccc"/>
      <path id="Path_418" data-name="Path 418" d="M259.351,485.948H222.1a1.319,1.319,0,1,1,0-2.638h37.252a1.319,1.319,0,0,1,0,2.638Z" transform="translate(-210.454 -385.987)" fill="#ccc"/>
      <circle id="Ellipse_46-2" data-name="Ellipse 46" cx="10.96" cy="10.96" r="10.96" transform="translate(229.232 0)" fill="#ccc"/>
      <path id="Path_408-2" data-name="Path 408" d="M673.426,311.09a1.137,1.137,0,0,1-.684-.227l-.012-.009-2.576-1.972a1.144,1.144,0,1,1,1.392-1.817l1.668,1.28,3.942-5.142a1.144,1.144,0,0,1,1.6-.212h0l-.025.033.025-.033a1.146,1.146,0,0,1,.212,1.6l-4.637,6.048a1.145,1.145,0,0,1-.91.447Z" transform="translate(-434.32 -295.949)" fill="#fff"/>
      <path id="Path_410-2" data-name="Path 410" d="M680.616,360.477a3,3,0,0,0-2.741-1.834H623.149a2.968,2.968,0,0,0-2.966,2.966v69.23a2.968,2.968,0,0,0,2.966,2.966h54.726a2.97,2.97,0,0,0,2.966-2.966v-69.23A2.913,2.913,0,0,0,680.616,360.477Zm-.434,70.363a2.311,2.311,0,0,1-2.306,2.306H623.149a2.306,2.306,0,0,1-2.306-2.306h0V361.609a2.311,2.311,0,0,1,2.306-2.306h54.726a2.319,2.319,0,0,1,2.142,1.454,2.572,2.572,0,0,1,.087.26,2.285,2.285,0,0,1,.079.6Z" transform="translate(-409.625 -323.819)" fill="#ccc"/>
      <path id="Path_411-2" data-name="Path 411" d="M700.238,388.624H683.754a1.319,1.319,0,0,1,0-2.638h16.483a1.319,1.319,0,0,1,0,2.638Z" transform="translate(-440.668 -337.454)" fill="#ccc"/>
      <path id="Path_412-2" data-name="Path 412" d="M700.238,402.434H683.754a1.319,1.319,0,0,1,0-2.637h16.483a1.319,1.319,0,0,1,0,2.637Z" transform="translate(-440.668 -344.341)" fill="#ccc"/>
      <path id="Path_413-2" data-name="Path 413" d="M654.737,395.829H642.692a1.485,1.485,0,0,1-1.484-1.483V380.13a1.485,1.485,0,0,1,1.484-1.483h12.046a1.485,1.485,0,0,1,1.483,1.483v14.215A1.485,1.485,0,0,1,654.737,395.829Z" transform="translate(-420.109 -333.794)" fill="#ccc"/>
      <path id="Path_414-2" data-name="Path 414" d="M679.351,430.71H642.1a1.319,1.319,0,0,1,0-2.637h37.252a1.319,1.319,0,0,1,0,2.637Z" transform="translate(-419.895 -358.441)" fill="#ccc"/>
      <path id="Path_415-2" data-name="Path 415" d="M679.351,444.524H642.1a1.319,1.319,0,0,1,0-2.637h37.252a1.319,1.319,0,0,1,0,2.637Z" transform="translate(-419.895 -365.33)" fill="#ccc"/>
      <path id="Path_416-2" data-name="Path 416" d="M679.351,458.329H642.1a1.319,1.319,0,0,1,0-2.638h37.252a1.319,1.319,0,0,1,0,2.638Z" transform="translate(-419.895 -372.214)" fill="#ccc"/>
      <path id="Path_417-2" data-name="Path 417" d="M679.351,472.142H642.1a1.319,1.319,0,0,1,0-2.637h37.252a1.319,1.319,0,0,1,0,2.638Z" transform="translate(-419.895 -379.102)" fill="#ccc"/>
      <path id="Path_418-2" data-name="Path 418" d="M679.351,485.948H642.1a1.319,1.319,0,0,1,0-2.638h37.252a1.319,1.319,0,0,1,0,2.638Z" transform="translate(-419.895 -385.987)" fill="#ccc"/>
    </g>
    <g id="Group_3647" data-name="Group 3647" transform="translate(580.649 785.047)">
      <path id="Path_2881" data-name="Path 2881" d="M804.454,528.642a2.907,2.907,0,0,1,3.983-2l6.982-7.612,1.3,5.207-6.831,6.43a2.922,2.922,0,0,1-5.439-2.025Z" transform="translate(-804.371 -449.906)" fill="#feb8b8"/>
      <path id="Path_2882" data-name="Path 2882" d="M838.7,755.983h-4.266l-2.03-16.456h6.3Z" transform="translate(-823.62 -601.311)" fill="#feb8b8"/>
      <path id="Path_2884" data-name="Path 2884" d="M904.988,744.843,901,746.357l-7.737-14.665,5.887-2.234Z" transform="translate(-865.408 -594.397)" fill="#feb8b8"/>
      <path id="Path_2885" data-name="Path 2885" d="M907.569,773.167l-7.855,2.981h0a5.355,5.355,0,0,0-3.106,6.906l.063.163,12.861-4.881Z" transform="translate(-867.466 -624.41)" fill="#2f2e41"/>
      <path id="Path_2886" data-name="Path 2886" d="M868.156,617.36l3.536,19.025s9.6,26.769,8.923,27.442-9.933,3.03-9.428,1.515S860.075,641.1,860.075,641.1Z" transform="translate(-842.62 -517.425)" fill="#2f2e41"/>
      <path id="Path_2887" data-name="Path 2887" d="M826.334,507.03s-7.137,9.33-6.2,9.839,4.558,3.207,4.558,3.207l3.686-10.116Z" transform="translate(-815.135 -441.666)" fill="#e4e4e4"/>
      <path id="Path_2888" data-name="Path 2888" d="M829.754,536.9s-1.178,8.755-.673,10.607.168,54.379-.168,55.221-1.347,3.7-.842,5.05,7.407,4.714,8.418,3.536,8.418-44.109,8.418-44.109,10.438-25.927,8.081-28.452S829.754,536.9,829.754,536.9Z" transform="translate(-820.549 -462.124)" fill="#2f2e41"/>
      <circle id="Ellipse_542" data-name="Ellipse 542" cx="8.249" cy="8.249" r="8.249" transform="translate(16.102 2.017)" fill="#feb8b8"/>
      <path id="Path_2890" data-name="Path 2890" d="M837.88,373.04a5.848,5.848,0,0,1,1.88-3.459l1.5-4.6H850.1l2.463,3.865c2.663,1.147,4.638,2.966,4.712,5.111.407,1.424-1.347,46.635-1.852,48.318-.148.49-2.162.752-4.993.869-2.6.106-5.877.091-9.027.018-5.216-.121-10.078-.4-10.9-.551C828.66,422.276,837.7,374.1,837.88,373.04Z" transform="translate(-822.148 -344.129)" fill="#e4e4e4"/>
      <path id="Path_2891" data-name="Path 2891" d="M869.628,552.389a2.907,2.907,0,0,0,.572-4.42l4.879-9.1-5.345.488-3.813,8.571a2.922,2.922,0,0,0,3.708,4.465Z" transform="translate(-846.082 -463.525)" fill="#feb8b8"/>
      <path id="Path_2893" data-name="Path 2893" d="M870.014,374.375s-7.744,3.2-4.882,11.28,6.061,17.677,6.061,17.677-4.041,21.718-4.041,22.561-2.525,5.387-1.515,6.229,7.744,2.525,7.913,1.684a56.96,56.96,0,0,1,1.852-5.724c.337-.673,8.25-21.718,7.238-23.57-.743-1.363-1.4-13.85-1.688-20.348a10.687,10.687,0,0,0-5.572-9A7.4,7.4,0,0,0,870.014,374.375Z" transform="translate(-845.657 -350.438)" fill="#e4e4e4"/>
      <path id="Path_2800" data-name="Path 2800" d="M867.861,312.385a12.4,12.4,0,0,0-2.03-.528c-2.423-.643-4.047-3.036-3.529-5.2a2.341,2.341,0,0,0,.127-.857c-.091-.641-.842-1.055-1.562-1.2a17.325,17.325,0,0,1-2.176-.362,2.943,2.943,0,0,1-1.923-2.308,4.286,4.286,0,0,1,.729-2.874l.26.654a2.435,2.435,0,0,0,.85-1.111,1.723,1.723,0,0,1,1.335.938c.418.215.478-.668.94-.8a.923.923,0,0,1,.576.125,5.281,5.281,0,0,0,3.008-.155,12.916,12.916,0,0,1,5.255-.005,6.652,6.652,0,0,1,3.106,1.4,6.378,6.378,0,0,1,1.453,2.181,11.164,11.164,0,0,1,1.172,6.1,8.163,8.163,0,0,1-2.33,4.575c-.665.67-2.836,3.005-4.026,2.607C867.6,315.059,869.623,313.2,867.861,312.385Z" transform="translate(-840.334 -298.432)" fill="#2f2e41"/>
    </g>
  </g>
</svg>
