<svg xmlns="http://www.w3.org/2000/svg" width="299" height="257.384" viewBox="0 0 299 257.384">
  <g id="Group_3645" data-name="Group 3645" transform="translate(-71.343 -263)">
    <path id="Path_3349" data-name="Path 3349" d="M368.438,715.065H284.913c-.121,0-.219-.182-.219-.407s.1-.407.219-.407h83.525c.121,0,.219.182.219.407S368.559,715.065,368.438,715.065Z" transform="translate(1.686 -199.6)" fill="#ccc"/>
    <path id="Path_3344" data-name="Path 3344" d="M398,715.065H284.991c-.164,0-.3-.182-.3-.407s.133-.407.3-.407H398c.164,0,.3.182.3.407S398.16,715.065,398,715.065Z" transform="translate(-213.351 -200.207)" fill="#ccc"/>
    <path id="Path_3345" data-name="Path 3345" d="M809.148,404.825h-3.666V153.583a1.833,1.833,0,1,1,3.666,0Z" transform="translate(-576.896 111.25)" fill="#e6e6e6"/>
    <path id="Path_3346" data-name="Path 3346" d="M796.134,715.065H739.1a.407.407,0,0,1,0-.815h57.033a.407.407,0,0,1,0,.815Z" transform="translate(-537.316 -200.207)" fill="#ccc"/>
    <path id="Path_3347" data-name="Path 3347" d="M796.661,224.9H743.315a1.835,1.835,0,0,1-1.833-1.833v-15.48a1.835,1.835,0,0,1,1.833-1.833h53.35a1.837,1.837,0,0,1,.893.233l13.8,7.7a1.833,1.833,0,0,1,.007,3.2l-13.8,7.781A1.837,1.837,0,0,1,796.661,224.9Z" transform="translate(-538.968 102.562)" fill="#6c63ff" opacity="0.4"/>
    <path id="Path_3348" data-name="Path 3348" d="M764.637,306.9H711.291a1.839,1.839,0,0,1-.9-.236l-13.8-7.781a1.833,1.833,0,0,1,.007-3.2l13.8-7.7a1.837,1.837,0,0,1,.893-.233h53.35a1.835,1.835,0,0,1,1.833,1.833v15.48A1.835,1.835,0,0,1,764.637,306.9Z" transform="translate(-505.431 53.967)" fill="#e6e6e6"/>
    <path id="Path_3350" data-name="Path 3350" d="M764.637,306.9H711.291a1.839,1.839,0,0,1-.9-.236l-13.8-7.781a1.833,1.833,0,0,1,.007-3.2l13.8-7.7a1.837,1.837,0,0,1,.893-.233h53.35a1.835,1.835,0,0,1,1.833,1.833v15.48A1.835,1.835,0,0,1,764.637,306.9Z" transform="translate(-505.431 -7.547)" fill="#e6e6e6"/>
    <g id="Group_3644" data-name="Group 3644" transform="translate(143.796 359.286)">
      <g id="Group_3640" data-name="Group 3640" transform="translate(25.055 134.22)">
        <path id="Path_3322" data-name="Path 3322" d="M105.762,481.395l-4.8,1.341-7.454-17.861,7.078-1.979Z" transform="translate(-91.333 -462.896)" fill="#ffb8b8"/>
        <path id="Path_3323" data-name="Path 3323" d="M0,6.047H15.651V0H5.442A5.442,5.442,0,0,0,0,5.442v.605Z" transform="translate(0 21.054) rotate(-15.62)" fill="#2f2e41"/>
      </g>
      <g id="Group_3641" data-name="Group 3641" transform="translate(8.368 136.923)">
        <path id="Path_3324" data-name="Path 3324" d="M245.243,485.817h-3.928l-1.868-15.15h5.8Z" transform="translate(-233.739 -470.666)" fill="#ffb8b8"/>
        <path id="Path_3325" data-name="Path 3325" d="M0,4.77H12.345V0H4.292A4.292,4.292,0,0,0,0,4.292V4.77Z" transform="translate(0 14.027) rotate(0.005)" fill="#2f2e41"/>
      </g>
      <rect id="Rectangle_1046" data-name="Rectangle 1046" width="14.752" height="25.454" transform="translate(14.277 12.704)" fill="#3f3d56"/>
      <rect id="Rectangle_1047" data-name="Rectangle 1047" width="14.752" height="25.454" transform="translate(14.277 12.704)" opacity="0.1"/>
      <path id="Path_3293" data-name="Path 3293" d="M784.682,373.078a5.084,5.084,0,0,1,3-.423,3.808,3.808,0,0,1,1.781.381c1.058.639,1.219,2.082,1.27,3.318.051,1.473.051,3.106-.931,4.232a5.3,5.3,0,0,1-3.148,1.4,8.528,8.528,0,0,0-2.365.6,10.388,10.388,0,0,0-2.057,1.578,10.959,10.959,0,0,1-5.006,2.607c-1.21-2.442-1.524-4.782.368-6.881,1.045-1.159,2.4-2.052,3.529-3.127S783.3,373.912,784.682,373.078Z" transform="translate(-697.889 -339.554)" fill="#ffb8b8"/>
      <path id="Path_3296" data-name="Path 3296" d="M638.776,348.563a1.972,1.972,0,0,1,.5.876c.153.8-.588,1.5-1.346,1.786a11.992,11.992,0,0,0-2.289.791,3.974,3.974,0,0,0-1.447,2.116c-1.439,4.046.165,9.145,3.982,11.113,2.632,1.358,5.764,1.147,8.717.9a3.34,3.34,0,0,0,1.206-.254,3.07,3.07,0,0,0,.982-.889,17.312,17.312,0,0,0,3.165-15.082,1.7,1.7,0,0,0-.25-.605c-.762-1.045-2.6.241-3.677-.47a2.2,2.2,0,0,1-.715-1.016,21.711,21.711,0,0,1-1.519-5.438c-.034-.229-4.841,1.612-5.252,1.815-1.638.846-1.722.068-2.937,1.451C639.195,346.024,637.7,347.319,638.776,348.563Z" transform="translate(-615.646 -322.11)" fill="#a0616a"/>
      <path id="Path_3297" data-name="Path 3297" d="M638.776,348.563a1.972,1.972,0,0,1,.5.876c.153.8-.588,1.5-1.346,1.786a11.992,11.992,0,0,0-2.289.791,3.974,3.974,0,0,0-1.447,2.116c-1.439,4.046.165,9.145,3.982,11.113,2.632,1.358,5.764,1.147,8.717.9a3.34,3.34,0,0,0,1.206-.254,3.07,3.07,0,0,0,.982-.889,17.312,17.312,0,0,0,3.165-15.082,1.7,1.7,0,0,0-.25-.605c-.762-1.045-2.6.241-3.677-.47a2.2,2.2,0,0,1-.715-1.016,21.711,21.711,0,0,1-1.519-5.438c-.034-.229-4.841,1.612-5.252,1.815-1.638.846-1.722.068-2.937,1.451C639.195,346.024,637.7,347.319,638.776,348.563Z" transform="translate(-615.646 -322.11)" fill="#ffb8b8" opacity="0.1"/>
      <path id="Path_3298" data-name="Path 3298" d="M626.714,471.2q-.423,4.088-.6,8.193a22.269,22.269,0,0,0,.626,7.824c.423,1.405,1.147,2.717,1.524,4.139a19.983,19.983,0,0,1,.4,5.154,12,12,0,0,1-.279,2.962,26.629,26.629,0,0,1-.982,2.539c-1.143,3.034-.88,6.4-.487,9.615.741,6.051,1.9,12.044,3.051,18.027l2.086,10.85A35.056,35.056,0,0,1,625,542.572c-1.5.271-3.453.22-4.05-1.185a3.978,3.978,0,0,1-.089-1.985,20.249,20.249,0,0,0-1.024-8.929c-.821-2.323-2.061-4.494-2.691-6.877a24.654,24.654,0,0,1-.652-4.579q-.292-4.063-.245-8.138c.042-3.665.275-7.418-.821-10.918-1.435-4.579-5.108-8.658-4.68-13.44-.089,5.269-.182,10.541.173,15.8a52.159,52.159,0,0,1,.254,6.551c-.178,3.2-1.1,6.436-.423,9.576a35.289,35.289,0,0,1,.952,3.809c.22,2.04-.55,4.181.131,6.119.588,1.693,2.226,3.03,2.175,4.811a3.686,3.686,0,0,1-2.281,3.034,10.782,10.782,0,0,1-3.9.74c-1.439.093-3.182.034-3.906-1.214-.884-1.519.516-3.314.779-5.049s-.664-3.428-1.494-4.985a64.167,64.167,0,0,1-7.5-28.513c-.072-3.009.068-6.022.051-9.031a87.284,87.284,0,0,0-2.539-20.486C604.548,467.251,616.025,467.357,626.714,471.2Z" transform="translate(-592.315 -394.291)" fill="#3c354c"/>
      <ellipse id="Ellipse_240" data-name="Ellipse 240" cx="8.535" cy="8.535" rx="8.535" ry="8.535" transform="translate(15.868 9.378)" fill="#ffb8b8"/>
      <path id="Path_3299" data-name="Path 3299" d="M643.119,360.227a9.652,9.652,0,0,1-3.775,4.189c-1.705.859-4.088.639-5.159-.944-.808-1.2-.825-3-2.082-3.7a2.5,2.5,0,0,0-3.047.88,6.561,6.561,0,0,0-1.041,3.25,67.034,67.034,0,0,0-.3,8.6c.178,13.986,1.3,27.959,1.117,41.949a53.651,53.651,0,0,1-.377,6.542,85.753,85.753,0,0,1,15.657-2.937c2.569-.157,5.154-.085,7.7-.423a47.607,47.607,0,0,0,5.192-1.1,1.155,1.155,0,0,0,.614-.292,1.133,1.133,0,0,0,.212-.643c.525-4.947-1.206-9.818-1.972-14.731-.719-4.583-.592-9.263-1.21-13.863-.846-6.453-3.178-12.737-3.127-19.25,0-2.365.347-4.769-.177-7.08-.423-1.9-1.892-4.443-4.02-4.816C644.972,355.445,644.007,358.623,643.119,360.227Z" transform="translate(-612.198 -329.867)" fill="#6c63ff"/>
      <path id="Path_3300" data-name="Path 3300" d="M649.288,362.569c-2.611,5.2-5.264,10.516-6.115,16.279-.766,5.2-.03,10.516-.66,15.729-.808,6.695-3.838,13.508-1.782,19.932.457,1.435,1.156,2.78,1.642,4.2,2.116,6.246,0,13.207,1.367,19.665a1.084,1.084,0,0,0,.487.821c.36.157.753-.106,1.13-.224,1.629-.521,2.751,1.549,4.041,2.674a4.346,4.346,0,0,0,4.74.576c2.416-1.244,3.059-4.342,3.385-7.037q2.433-19.339,2.962-38.86a46.063,46.063,0,0,0-.364-8.844c-.588-3.542-1.942-6.91-2.67-10.423-1.168-5.654-.681-11.5-.364-17.261.089-1.693-.385-6.568-3.259-4.977C651.62,356.044,650.359,360.441,649.288,362.569Z" transform="translate(-619.315 -329.108)" fill="#575a89"/>
      <path id="Path_3301" data-name="Path 3301" d="M622.53,383.009a18.573,18.573,0,0,1-.622,5.476,31.322,31.322,0,0,1-2.539,4.955,29.652,29.652,0,0,0-2.988,13.161,135.21,135.21,0,0,0,.774,13.588,173.1,173.1,0,0,1,.36,20.693,15.126,15.126,0,0,1,8.794-.368c1.693.423,3.711,1.117,5.036-.034.944-.821,1.058-2.222,1.1-3.47q.673-19.081.423-38.179a40.254,40.254,0,0,1,.14-5,35.486,35.486,0,0,0,.423-3.859,19.838,19.838,0,0,0-.982-5.349L627.985,368.8a7.159,7.159,0,0,0-1.329-2.928c-.724-.813-2.911-1.887-3.762-.846-.736.914-.19,4.046-.2,5.171Z" transform="translate(-605.667 -334.927)" opacity="0.1"/>
      <path id="Path_3302" data-name="Path 3302" d="M621.164,382.33a18.606,18.606,0,0,1-.626,5.48A31.128,31.128,0,0,1,618,392.766a29.653,29.653,0,0,0-2.988,13.161,135.205,135.205,0,0,0,.774,13.588,173,173,0,0,1,.36,20.689,15.175,15.175,0,0,1,8.8-.368c1.693.444,3.707,1.121,5.032-.03.944-.821,1.058-2.222,1.1-3.474q.669-19.081.423-38.179a40.173,40.173,0,0,1,.135-5,37.2,37.2,0,0,0,.423-3.859,19.816,19.816,0,0,0-.977-5.349l-4.465-15.822a7.243,7.243,0,0,0-1.333-2.933c-.724-.817-2.911-1.883-3.762-.825-.732.91-.186,4.046-.2,5.167Z" transform="translate(-604.877 -334.541)" fill="#575a89"/>
      <path id="Path_3303" data-name="Path 3303" d="M610.759,361.59c-2.306.233-4.079,2.222-4.981,4.354s-1.164,4.477-1.849,6.686c-1.2,3.83-3.682,7.283-4.084,11.273-.372,3.766,1.168,7.587.423,11.294a22.82,22.82,0,0,1-.893,2.924A92.906,92.906,0,0,0,596.3,411.1l-1.219,6.513c-.846,4.591-1.722,9.31-.935,13.91a4.346,4.346,0,0,1,5.5.351c.423.393.774.893,1.329.977.952.135,1.536-1,1.786-1.925a57.7,57.7,0,0,0,1.8-10.11,26.269,26.269,0,0,1,.783-5.5c.347-1.113.846-2.158,1.227-3.263.846-2.611.732-5.421,1.083-8.142.3-2.357.948-4.655,1.316-7a58.579,58.579,0,0,0,.5-8.616l.165-16.576c.021-2.145.165-4.57,1.8-5.958.846-.707,3.043-1.358,2.84-2.687C614.073,361.827,611.707,361.5,610.759,361.59Z" transform="translate(-592.669 -333.186)" fill="#2f2e41"/>
      <path id="Path_3304" data-name="Path 3304" d="M666.05,352.909c2.471-1.858,5.2-3.809,8.294-3.732a13.959,13.959,0,0,1,3.026.525l7,1.748a6.913,6.913,0,0,1-2.983,2.751,5.078,5.078,0,0,1,5.552,3.06c.977,2.564-.309,5.374-1.447,7.875-1.946,4.27-3.563,8.815-3.546,13.512,0,2.382-1.646,4.74-1.807,7.118a13.961,13.961,0,0,0,.364,4.439,29.779,29.779,0,0,0,1.591,4.13c4.287,10.063,5.26,21.256,4.786,32.187h-9.555a4.234,4.234,0,0,0-1.562.2,8.459,8.459,0,0,0-1.587,1.088,4.2,4.2,0,0,1-3.131.652c-1.02-4.655.592-9.386,1.388-14.066a69.5,69.5,0,0,0,.766-7.74q.334-6.161.339-12.344a27.829,27.829,0,0,0-1.1-9.229c-.508-1.456-1.244-2.831-1.722-4.3a25.832,25.832,0,0,1-.889-4.507C668.754,368.406,667.116,360.768,666.05,352.909Z" transform="translate(-634.326 -326.033)" fill="#2f2e41"/>
      <path id="Path_3305" data-name="Path 3305" d="M605.567,372.47a4.7,4.7,0,0,0-1.248,2.315c-.8,2.09-2.484,3.7-3.593,5.637a22.433,22.433,0,0,0-1.574,3.732c-1.468,4.189-2.962,8.561-2.437,12.966a4.568,4.568,0,0,0,1.066,2.725c1.528,1.536,4.35.588,5.531-1.231s1.249-4.1,1.485-6.254c.448-4.1,1.638-8.04,2.539-12.061a46.928,46.928,0,0,0,1.066-6.128c.064-.635.423-2.048-.178-2.45C607.847,371.467,605.918,372.233,605.567,372.47Z" transform="translate(-594.269 -339.009)" fill="#2f2e41"/>
      <path id="Path_3306" data-name="Path 3306" d="M706.588,388.374c1.054,1.269,2.336,2.611,3.969,2.569a5.627,5.627,0,0,0,2.289-.766,109.931,109.931,0,0,1,17.067-6.8,7.939,7.939,0,0,0,1.858,8.963,58.82,58.82,0,0,0-14.176,5.671,12.162,12.162,0,0,0-2.611,1.815,17.317,17.317,0,0,1-1.633,1.659c-1.3.99-3.051,1.058-4.685,1.083a6.847,6.847,0,0,1-5.383-1.646L691.6,392.563a1.248,1.248,0,0,1-.389-2.035l3.7-6.6c.846-1.494,1.8-3.965,3.783-4.232s2.713,1.866,3.652,3.263A61.96,61.96,0,0,0,706.588,388.374Z" transform="translate(-648.622 -343.627)" fill="#2f2e41"/>
      <rect id="Rectangle_1048" data-name="Rectangle 1048" width="7.812" height="16.199" rx="3.906" transform="translate(0.582 32.659) rotate(-21.57)" fill="#3f3d56"/>
      <rect id="Rectangle_1049" data-name="Rectangle 1049" width="7.812" height="16.199" rx="3.906" transform="translate(0.582 32.659) rotate(-21.57)" opacity="0.1"/>
      <rect id="Rectangle_1050" data-name="Rectangle 1050" width="7.812" height="16.199" rx="3.906" transform="translate(0 32.946) rotate(-21.57)" fill="#3f3d56"/>
      <ellipse id="Ellipse_241" data-name="Ellipse 241" cx="1.011" cy="1.011" rx="1.011" ry="1.011" transform="translate(5.022 35.268)" fill="#6c63ff"/>
      <path id="Path_3307" data-name="Path 3307" d="M594.632,390.69c-.525-.652-1.181-1.193-1.642-1.887a7.235,7.235,0,0,1-.965-3.043,28.108,28.108,0,0,1-.275-3.534,1.028,1.028,0,0,1,1.27-1.016,8.327,8.327,0,0,1,4.35,2.624,11.272,11.272,0,0,1,2.573,5.785,28.724,28.724,0,0,1,.241,3.3l.152,4.532a15.4,15.4,0,0,1-3.771,0c-1.519-.423-.906-.157-.753-1.65A6.648,6.648,0,0,0,594.632,390.69Z" transform="translate(-591.467 -344.496)" fill="#ffb8b8"/>
      <path id="Path_3308" data-name="Path 3308" d="M598.662,410.941a4.065,4.065,0,0,1-1.79-.245,5.5,5.5,0,0,1-2.4-2.806,40.157,40.157,0,0,1-.372,7.274,19.967,19.967,0,0,0-.533,3.838,6.742,6.742,0,0,0,1.82,4.418,3.161,3.161,0,0,0,1.117.817,3.247,3.247,0,0,0,2.793-.482,7.079,7.079,0,0,0,2.772-3.123,14.983,14.983,0,0,0,.847-5.963c.042-1.883.647-3.859.614-5.666C602.065,408.829,600.444,410.848,598.662,410.941Z" transform="translate(-592.515 -359.901)" fill="#2f2e41"/>
      <path id="Path_3309" data-name="Path 3309" d="M624.729,309.406a11.692,11.692,0,0,0,9.733.542c-.495,2.162.639,4.321,1.227,6.462,1.549,5.641-.846,11.768-4.655,16.2a11.849,11.849,0,0,0,9.636-3.491,25.22,25.22,0,0,1-4.757,7.926c7.325-2.281,12.556-9.073,14.9-16.377,1.794-5.594,2.116-11.874-.33-17.211s-8.066-9.411-13.918-8.929a13.653,13.653,0,0,0-10.347,6.771,17.608,17.608,0,0,0-1.786,12.45Z" transform="translate(-610.083 -294.488)" fill="#3f3d56"/>
      <path id="Path_3310" data-name="Path 3310" d="M637.313,334.771a15.293,15.293,0,0,1-.537,9.212,15.865,15.865,0,0,0,1.117-10.66c-.588-2.141-1.727-4.3-1.231-6.462a11.684,11.684,0,0,1-9.733-.542l-.118,1.693a11.7,11.7,0,0,0,9.31.313C635.591,330.471,636.725,332.63,637.313,334.771Z" transform="translate(-611.69 -312.85)" opacity="0.1"/>
      <path id="Path_3311" data-name="Path 3311" d="M625.534,313.77a17.99,17.99,0,0,0-1.1,11.1l.258-3.631A17.9,17.9,0,0,1,625.534,313.77Z" transform="translate(-610.076 -305.611)" opacity="0.1"/>
      <path id="Path_3312" data-name="Path 3312" d="M650.845,372.9a11.891,11.891,0,0,1-9.094,3.534c-.359.487-.732.956-1.121,1.405a11.849,11.849,0,0,0,9.6-3.462C650.452,373.89,650.659,373.4,650.845,372.9Z" transform="translate(-619.662 -339.718)" opacity="0.1"/>
      <path id="Path_3313" data-name="Path 3313" d="M653.552,372.778a20.721,20.721,0,0,1-1.392,1.727c6.893-2.146,11.933-8.29,14.456-15.095C664.055,365.347,659.548,370.582,653.552,372.778Z" transform="translate(-626.313 -331.937)" opacity="0.1"/>
    </g>
    <g id="Group_3643" data-name="Group 3643" transform="translate(94.517 419.839)">
      <rect id="Rectangle_1051" data-name="Rectangle 1051" width="1.49" height="45.478" transform="translate(22.081 4.247)" fill="#575a89"/>
      <rect id="Rectangle_1052" data-name="Rectangle 1052" width="1.494" height="45.478" transform="translate(26.706 4.247)" fill="#575a89"/>
      <ellipse id="Ellipse_242" data-name="Ellipse 242" cx="2.547" cy="2.548" rx="2.547" ry="2.548" transform="translate(16.237 91.434)" fill="#575a89"/>
      <path id="Path_3315" data-name="Path 3315" d="M461.11,547.955s2.539-2.065,4.769-1.35,8.04,1.431,9.056,5.078,0,43.777,0,43.777-4.926,1.27-6.276.635-1.193-6.669-1.193-6.669l-.393-35.593Z" transform="translate(-451.348 -500.332)" fill="#6c63ff"/>
      <path id="Path_3316" data-name="Path 3316" d="M461.11,547.955s2.539-2.065,4.769-1.35,8.04,1.431,9.056,5.078,0,43.777,0,43.777-4.926,1.27-6.276.635-1.193-6.669-1.193-6.669l-.393-35.593Z" transform="translate(-451.348 -500.332)" opacity="0.1"/>
      <path id="Path_3317" data-name="Path 3317" d="M494.823,594.681l-10.694,2.37-.11-1.9-.072-37.438a11.4,11.4,0,0,0-4.477-9.043h0a26.924,26.924,0,0,1,9.784,1.841c.906.423,1.815.808,2.746,1.151,1.155.423,2.721,1.333,2.823,3.127.131,2.336.576,25.475.736,33.9a21.326,21.326,0,0,1-.736,5.984Z" transform="translate(-461.938 -501.609)" fill="#6c63ff"/>
      <rect id="Rectangle_1053" data-name="Rectangle 1053" width="2.484" height="3.893" transform="translate(21.383 0.871)" fill="#535461"/>
      <rect id="Rectangle_1054" data-name="Rectangle 1054" width="2.484" height="3.893" transform="translate(21.383 0.871)" opacity="0.1"/>
      <rect id="Rectangle_1055" data-name="Rectangle 1055" width="2.484" height="3.893" transform="translate(26.05 1.488)" fill="#535461"/>
      <path id="Path_3318" data-name="Path 3318" d="M495.722,438.96h-2.484a2.467,2.467,0,0,0-2.184,1.451c-.034.076-.068.152-.1.237l-.546-.529-1.138-1.1-.7-.673S493.157,436,495.722,438.96Z" transform="translate(-467.187 -437.463)" fill="#535461"/>
      <ellipse id="Ellipse_243" data-name="Ellipse 243" cx="2.547" cy="2.548" rx="2.547" ry="2.548" transform="translate(27.07 93.228)" fill="#575a89"/>
      <ellipse id="Ellipse_244" data-name="Ellipse 244" cx="2.547" cy="2.548" rx="2.547" ry="2.548" transform="translate(0.762 89.75)" fill="#575a89"/>
      <path id="Path_3319" data-name="Path 3319" d="M446.135,548.69s-7.228,1.909-7.617,20.1-.478,20.1-.478,20.1.161,5.247,10.8,8.5h6.53l1.011-41.8S455.191,549.244,446.135,548.69Z" transform="translate(-438.04 -501.621)" fill="#6c63ff"/>
      <path id="Path_3320" data-name="Path 3320" d="M455.485,580.511s-1.854-25.437,8.133-25.551l.935.914S455.8,552.7,455.485,580.511Z" transform="translate(-448.024 -505.238)" opacity="0.1"/>
      <ellipse id="Ellipse_245" data-name="Ellipse 245" cx="2.547" cy="2.548" rx="2.547" ry="2.548" transform="translate(9.403 95.45)" fill="#575a89"/>
      <path id="Path_3321" data-name="Path 3321" d="M495.772,440.379h-.025a2.467,2.467,0,0,0-2.184,1.452c-.034.076-.068.152-.1.237l-.546-.529a.773.773,0,0,1,0-.14,1.443,1.443,0,0,1,.542-.939,2.141,2.141,0,0,1,2.069-.372C495.649,440.147,495.8,440.244,495.772,440.379Z" transform="translate(-469.692 -438.908)" opacity="0.1"/>
    </g>
    <g id="Group_3642" data-name="Group 3642" transform="translate(257.857 356.06)">
      <g id="Group_3639" data-name="Group 3639" transform="translate(0 130.049)">
        <path id="Path_3322-2" data-name="Path 3322" d="M106.243,482.12l-4.984,1.393-7.747-18.561,7.356-2.056Z" transform="translate(-31.634 -462.896)" fill="#ffb8b8"/>
        <path id="Path_3323-2" data-name="Path 3323" d="M0,6.284H16.265V0H5.655A5.655,5.655,0,0,0,0,5.655v.629Z" transform="translate(59.614 21.88) rotate(-15.62)" fill="#2f2e41"/>
        <path id="Path_3324-2" data-name="Path 3324" d="M247.083,490.628h-5.175l-2.461-19.962h7.638Z" transform="translate(-231.927 -467.501)" fill="#ffb8b8"/>
        <path id="Path_3325-2" data-name="Path 3325" d="M0,6.284H16.265V0H5.655A5.655,5.655,0,0,0,0,5.655v.629Z" transform="translate(0.001 21.647) rotate(0.005)" fill="#2f2e41"/>
      </g>
      <path id="Path_3326" data-name="Path 3326" d="M153.157,316.237l11.912,29.181-48.64,10.927-.62-16.326L137.9,316.494Z" transform="translate(-99.544 -245.934)" fill="#b3b3b3"/>
      <ellipse id="Ellipse_246" data-name="Ellipse 246" cx="11.118" cy="11.118" rx="11.118" ry="11.118" transform="translate(36.98 30.178) rotate(-151.337)" fill="#ffb8b8"/>
      <path id="Path_3327" data-name="Path 3327" d="M450.21,438.386l22.016-9.013,1.96-12.925a14.851,14.851,0,0,0-11.772-16.807l-2.912-.585a14.988,14.988,0,0,0-13.422,3.981,14.31,14.31,0,0,0-4.2,12.875,12.466,12.466,0,0,0,2.355,5.487c6.916,9.045,6.029,16.563,6.019,16.638Z" transform="translate(-425.598 -369.697)" fill="#6c63ff" opacity="0.36"/>
      <path id="Path_3328" data-name="Path 3328" d="M495.775,472.075l11.034-17.548-3.475-31.92,4.8-23.873-.255.006a10.879,10.879,0,0,0-10.607,10.611l-4.67,23.393Z" transform="translate(-480.128 -369.68)" fill="#2f2e41"/>
      <path id="Path_3329" data-name="Path 3329" d="M387.418,559.4a2.015,2.015,0,0,0,1.973-1.617l4.834-24.037a37.707,37.707,0,0,1,4.91-12.434l13.64-22.064a.7.7,0,0,1,1.245.1l22.425,53.87a2.019,2.019,0,0,0,2.262,1.2L444.7,553.2a2.006,2.006,0,0,0,1.584-2.311l-4.887-28.8a74.335,74.335,0,0,0-5.059-17.065l-16.551-38.25-24.424,8.021-1.612,17.1-11.285,27.326a18.731,18.731,0,0,0-1.38,5.927L379,556.73a2.024,2.024,0,0,0,1.846,2.141l6.409.524Q387.336,559.4,387.418,559.4Z" transform="translate(-372.023 -409.999)" fill="#2f2e41"/>
      <path id="Path_3330" data-name="Path 3330" d="M416.273,481.894l7.743-7.35-14.634-56.429a23.653,23.653,0,0,0-13.918-15.9l-.287-.117.782,34.344Z" transform="translate(-356.322 -371.672)" fill="#2f2e41"/>
      <path id="Path_3331" data-name="Path 3331" d="M461.976,355.706a8.613,8.613,0,0,0,1.9-10.083,8.029,8.029,0,0,0-9.149-4c-3.241.969-6.925-2.263-6.531-5.727s4.7-5.722,7.639-4a12.429,12.429,0,0,1,13.25,2.581,13.5,13.5,0,0,1,3.208,13.542C470.745,352.659,466.425,356.174,461.976,355.706Z" transform="translate(-426.829 -329.538)" fill="#2f2e41"/>
      <path id="Path_3332" data-name="Path 3332" d="M397.1,529.036a1.888,1.888,0,0,0,.421.108l17.678,2.468a1.9,1.9,0,0,0,2.048-1.207l15.217-39.6a1.911,1.911,0,0,0-1.367-2.55h0l-16.624-3.71a1.517,1.517,0,0,1-.369-.135l-16.17-8.454a1.884,1.884,0,0,0-.393-.153l-17.795-4.744a1.907,1.907,0,0,0-2.276,1.161l-13.268,34.524a1.9,1.9,0,0,0,.251,1.827l4.589,6.162a1.909,1.909,0,0,0,.847.642l10.028,3.854a1.518,1.518,0,0,1,.208.1l16.71,9.577A1.9,1.9,0,0,0,397.1,529.036Z" transform="translate(-352.23 -412.504)" fill="#fff"/>
      <path id="Path_3333" data-name="Path 3333" d="M393.482,480.642l2.26.6,5.988,1.6.011,0,8.2,4.287,3.042,1.591h0l4.57,2.389.125.028,4.747,1.059,2.294.513,9.357,2.088-14.69,38.224-9.643-1.346-2.364-.331-5.039-.7-.058-.008-16.193-9.281-9.852-3.786-4.5-6.04,12.787-33.273Z" transform="translate(-356.834 -416.804)" fill="#e6e6e6"/>
      <rect id="Rectangle_1056" data-name="Rectangle 1056" width="52.188" height="2.326" transform="translate(73.466 87.824) rotate(-158.978)" fill="#fff"/>
      <rect id="Rectangle_1057" data-name="Rectangle 1057" width="52.188" height="2.326" transform="translate(70.685 95.059) rotate(-158.978)" fill="#fff"/>
      <rect id="Rectangle_1058" data-name="Rectangle 1058" width="52.188" height="2.326" transform="translate(65.068 109.676) rotate(-158.978)" fill="#fff"/>
      <path id="Path_3334" data-name="Path 3334" d="M195.729,300.365l-14.584,37.949,2.171.834,14.673-38.18Z" transform="translate(-159.08 -236.527)" fill="#fff"/>
      <path id="Path_3335" data-name="Path 3335" d="M111.037,316.294l2.995,8.333,1.038,2.89,2.422,6.744.519,1.442.519,1.449.684,1.9,4.909,13.663,1.276-3.321-4-11.141-.906-2.523-.133-.368-1.071-2.982-1.351-3.761-1.038-2.891-2.817-7.842h0Z" transform="translate(-57.931 -245.967)" fill="#fff"/>
      <path id="Path_3336" data-name="Path 3336" d="M127.3,344.142l.353.136,16.193,9.281.059.007,15.337-39.5-.125-.028-4.57-2.389h0l-3.043-1.591-8.2-4.287-.011,0Z" transform="translate(-98.395 -239.728)" opacity="0.1"/>
      <path id="Path_3337" data-name="Path 3337" d="M396.735,528.928a2.1,2.1,0,0,0,.466.12l17.678,2.468a2.106,2.106,0,0,0,2.266-1.336l15.217-39.6a2.114,2.114,0,0,0-1.513-2.822l-16.624-3.71a1.324,1.324,0,0,1-.319-.117l-16.17-8.454a2.1,2.1,0,0,0-.435-.169l-17.8-4.744a2.11,2.11,0,0,0-2.518,1.284l-13.268,34.525A2.1,2.1,0,0,0,364,508.4l4.589,6.162a2.11,2.11,0,0,0,.937.711l10.028,3.854a1.317,1.317,0,0,1,.18.086l16.71,9.577A2.124,2.124,0,0,0,396.735,528.928Zm34.12-40.315a1.3,1.3,0,0,1,.747,1.679l-15.217,39.6a1.294,1.294,0,0,1-1.393.821l-17.678-2.468a1.307,1.307,0,0,1-.467-.159l-16.71-9.577a2.105,2.105,0,0,0-.293-.139l-10.028-3.854a1.3,1.3,0,0,1-.576-.437l-4.589-6.162a1.293,1.293,0,0,1-.171-1.243l13.268-34.525a1.3,1.3,0,0,1,1.548-.79L397.09,476.1a1.341,1.341,0,0,1,.267.1l16.17,8.454a2.152,2.152,0,0,0,.519.19l16.625,3.71A1.3,1.3,0,0,1,430.854,488.614Z" transform="translate(-351.934 -412.207)" fill="#e6e6e6"/>
      <path id="Path_3338" data-name="Path 3338" d="M125.059,328.733l-15.045,39.149,2.364.33,14.975-38.966Z" transform="translate(-59.467 -253.339)" fill="#fff"/>
      <circle id="Ellipse_247" data-name="Ellipse 247" cx="1.085" cy="1.085" r="1.085" transform="translate(60.179 89.026)" fill="#3f3d56"/>
      <circle id="Ellipse_248" data-name="Ellipse 248" cx="1.085" cy="1.085" r="1.085" transform="translate(21.7 90.182)" fill="#6c63ff"/>
      <path id="Path_3339" data-name="Path 3339" d="M471.649,496.388c-1.232,3.205.251,13.826.772,17.235a.62.62,0,0,0,1.005.386c2.67-2.183,10.884-9.078,12.116-12.283a7.442,7.442,0,0,0-13.893-5.339Z" transform="translate(-449.303 -424.721)" fill="#1c8d2b"/>
      <circle id="Ellipse_249" data-name="Ellipse 249" cx="4.031" cy="4.031" r="4.031" transform="translate(25.262 70.305)" fill="#fff"/>
      <path id="Path_3340" data-name="Path 3340" d="M494.474,475.116a4.245,4.245,0,0,0-5.913-2.72l-7.2-6.5-5.019,3.409,10.291,9.043a4.268,4.268,0,0,0,7.838-3.227Z" transform="translate(-460.004 -409.477)" fill="#ffb8b8"/>
      <path id="Path_3341" data-name="Path 3341" d="M512,439.3l5.641-7.655-12.859-8.23L514,410.267a5.329,5.329,0,0,0-7.956-7L494.5,413.8a9.667,9.667,0,0,0,1.356,15.317Z" transform="translate(-489.124 -371.543)" fill="#2f2e41"/>
      <path id="Path_3342" data-name="Path 3342" d="M384.53,515.367a4.245,4.245,0,0,1-.589-6.482l-3.729-8.955,4.889-3.593,5.088,12.72a4.268,4.268,0,0,1-5.659,6.31Z" transform="translate(-317.461 -427.52)" fill="#ffb8b8"/>
      <path id="Path_3343" data-name="Path 3343" d="M405.39,453.831l8.818-2.054-6.571-18.949a31.067,31.067,0,0,0-4.943-9.046L391.973,410.15a5.995,5.995,0,1,0-9.451,7.377l11.9,15.353Z" transform="translate(-340.84 -375.077)" fill="#2f2e41"/>
    </g>
  </g>
</svg>
