<svg xmlns="http://www.w3.org/2000/svg" width="260.64" height="259.49" viewBox="0 0 260.64 259.49">
  <g id="Group_3661" data-name="Group 3661" transform="translate(-57 -238.755)">
    <g id="Group_3649" data-name="Group 3649" transform="translate(71.555 238.755)" opacity="0.18">
      <path id="Path_3351" data-name="Path 3351" d="M165.925,67.219c-.651-1.1-3.466.078-3.983-.918s2.1-2.5,3.594-5.957c.269-.623,1.967-4.547.71-5.758-2.383-2.3-13.286,7.177-17.1,4.077-.837-.68-1.422-2.038-3.957-4.243-1.008-.877-1.618-1.273-2.208-1.126-.837.209-.9,1.33-1.8,3.533-1.346,3.3-2.143,3.1-2.927,5.741-.582,1.957-.449,3.095-1.135,3.316-.97.314-1.862-1.762-3.091-1.576-1.254.19-2.012,2.606-2.252,4.416-.449,3.4.8,5.636,1.489,7.992.751,2.56,1.2,6.454-.538,11.967l-17.168,48.372c3.79-9.926,14.765-37.135,19.376-47.246,1.331-2.919,2.8-5.88,5.819-7.048,2.906-1.125,6.9-.453,11.984-1.679.594-.143,2.243-.563,2.451-1.532.172-.8-.8-1.249-.649-2,.2-1.007,2.107-1.02,4.451-2.182a13.87,13.87,0,0,0,3.568-2.632c.267-.253,4.235-4.055,3.369-5.516h0Z" transform="translate(-84.903 -32.425)" fill="#399b46"/>
      <path id="Path_3352" data-name="Path 3352" d="M50.68,148.068c-.726,0-.962,1.723-1.6,1.69s-.623-1.753-1.887-3.483c-.228-.312-1.664-2.278-2.621-2.01-1.814.507-.311,8.592-2.933,9.57a29.024,29.024,0,0,0-3.224.718c-.721.242-1.092.427-1.19.759-.139.471.392.827,1.214,1.9,1.233,1.614.906,1.947,1.973,3.093.792.85,1.389,1.113,1.3,1.514-.126.566-1.4.406-1.665,1.062s.7,1.74,1.518,2.379c1.537,1.2,3,1.235,4.352,1.575a11.429,11.429,0,0,1,5.718,3.717l18.788,22.383c-3.778-4.724-13.966-17.961-17.6-23.142-1.049-1.5-2.077-3.071-1.78-4.89.286-1.751,1.767-3.516,2.634-6.366.1-.333.371-1.263-.045-1.645-.344-.316-.844.031-1.169-.258-.437-.389.108-1.328.213-2.814a7.9,7.9,0,0,0-.262-2.51c-.047-.2-.768-3.249-1.735-3.245h0Z" transform="translate(-37.203 -87.809)" fill="#399b46"/>
      <path id="Path_3353" data-name="Path 3353" d="M108,135.9,107.566,132l.2-.3a7.226,7.226,0,0,0,1.4-3.976c0-.2-.008-.4-.018-.609a6.11,6.11,0,0,1,.443-3.008c.3-.658,1.128-2.182,2.378-1.993a1.416,1.416,0,0,1,.785.383l.089-.14a4.3,4.3,0,0,1,.995-1.094,5.024,5.024,0,0,0,.834-.843c.162-.2.289-.379.4-.528a1.834,1.834,0,0,1,1.491-.979,1.958,1.958,0,0,1,1.489,1.132,9.413,9.413,0,0,1,.865,1.709,2.957,2.957,0,0,0,.146.336c.256.377,2.341.024,3.127-.1,1.764-.294,3.291-.549,3.92.564.451.8.116,1.848-1.025,3.212a6.378,6.378,0,0,1-1.069,1,1.307,1.307,0,0,1,.628.82h0c.238.947-.576,1.9-2.418,2.823a6.5,6.5,0,0,1-1.936.69,7.6,7.6,0,0,1-1.085.1,1.285,1.285,0,0,1-.159.579,1.932,1.932,0,0,1-2.011.809,15.769,15.769,0,0,1-2.847-.458,6.9,6.9,0,0,0-1.8-.268c-.888.072-1.573.783-2.376,1.7L108,135.9h0Z" transform="translate(-80.038 -72.39)" fill="#399b46"/>
      <path id="Path_3354" data-name="Path 3354" d="M84.875,80.234l-3.667,1.414-.337-.118a7.226,7.226,0,0,0-4.2-.348c-.2.05-.388.111-.585.172a6.11,6.11,0,0,1-3.022.334c-.712-.119-2.4-.537-2.532-1.795a1.416,1.416,0,0,1,.171-.856l-.157-.05a4.3,4.3,0,0,1-1.31-.685,5.024,5.024,0,0,0-1.027-.593c-.236-.106-.44-.183-.611-.248a1.834,1.834,0,0,1-1.325-1.194,1.958,1.958,0,0,1,.717-1.727,9.415,9.415,0,0,1,1.433-1.27,2.957,2.957,0,0,0,.288-.227c.3-.344-.57-2.271-.893-3-.732-1.632-1.366-3.044-.449-3.935.656-.638,1.758-.581,3.367.177a6.377,6.377,0,0,1,1.238.781,1.307,1.307,0,0,1,.634-.816h0c.856-.47,1.98.077,3.344,1.623a6.5,6.5,0,0,1,1.159,1.7,7.6,7.6,0,0,1,.368,1.025,1.286,1.286,0,0,1,.6.007c.657.162,1.1.742,1.293,1.74a15.769,15.769,0,0,1,.279,2.87,6.9,6.9,0,0,0,.2,1.806c.295.841,1.156,1.323,2.252,1.866l2.776,1.346h0Z" transform="translate(-54.88 -39.979)" fill="#399b46"/>
      <path id="Path_3355" data-name="Path 3355" d="M108,47.046l-.438-3.906.2-.3a7.226,7.226,0,0,0,1.4-3.976c0-.2-.008-.4-.018-.609a6.109,6.109,0,0,1,.443-3.008c.3-.658,1.128-2.182,2.378-1.993a1.416,1.416,0,0,1,.785.383l.089-.14a4.3,4.3,0,0,1,.995-1.094,5.024,5.024,0,0,0,.834-.843c.162-.2.289-.379.4-.528a1.834,1.834,0,0,1,1.491-.979,1.958,1.958,0,0,1,1.489,1.132,9.413,9.413,0,0,1,.865,1.709,2.954,2.954,0,0,0,.146.336c.256.377,2.341.025,3.127-.1,1.764-.294,3.291-.549,3.92.564.451.8.116,1.848-1.025,3.212a6.378,6.378,0,0,1-1.069,1,1.307,1.307,0,0,1,.628.82h0c.238.947-.576,1.9-2.418,2.823a6.5,6.5,0,0,1-1.936.69,7.6,7.6,0,0,1-1.085.1,1.285,1.285,0,0,1-.159.579,1.932,1.932,0,0,1-2.011.809,15.771,15.771,0,0,1-2.847-.458,6.9,6.9,0,0,0-1.8-.268c-.888.072-1.573.783-2.376,1.7L108,47.046h0Z" transform="translate(-80.038 -18.298)" fill="#399b46"/>
      <path id="Path_3356" data-name="Path 3356" d="M101.567,123.6l-.819-.513-.2-.945.2.945-.954.109c-.015-.089-.067-.292-.145-.611a136.586,136.586,0,0,1-2.816-15.431A157.329,157.329,0,0,1,95.557,89.3c-.089-6.016.2-10.571.424-14.232.173-2.761.382-5.39.587-7.951a148.687,148.687,0,0,0,.679-20.461,18.958,18.958,0,0,0-2.206-8.461,17.965,17.965,0,0,0-4.614-5.413l1.2-1.513a19.928,19.928,0,0,1,5.1,6,20.762,20.762,0,0,1,2.441,9.287,150.139,150.139,0,0,1-.684,20.716c-.2,2.552-.413,5.169-.585,7.919-.226,3.627-.508,8.142-.421,14.081a155.409,155.409,0,0,0,1.259,17.638,134.426,134.426,0,0,0,2.778,15.22c.224.918.272,1.111.041,1.475h0Z" transform="translate(-69.605 -19.035)" fill="#399b46"/>
      <path id="Path_3357" data-name="Path 3357" d="M69.862,16.814c-.079,0-.159,0-.24-.008-1.645-.089-3.168-1.073-4.527-2.925a13.5,13.5,0,0,1-1.614-3.847,24.121,24.121,0,0,1-.889-3.989A3.915,3.915,0,0,1,62.7,3.553a2.947,2.947,0,0,1,1.361-1.243,1.091,1.091,0,0,1,.075-.57c.329-.805,1.2-.7,1.678-.649a4.743,4.743,0,0,0,.861.053,2.427,2.427,0,0,0,1.193-.4A5.371,5.371,0,0,1,69.479.108a5.758,5.758,0,0,1,3.038.241c2.089.7,3.118,2.32,4.31,4.2A14.747,14.747,0,0,1,78.42,8.182a4.319,4.319,0,0,1,.217,2.41c-.238.922-.8,1.45-2.224,2.616a25.9,25.9,0,0,1-2.876,2.2c-1.493.862-2.43,1.4-3.675,1.4h0Z" transform="translate(-52.581 0)" fill="#399b46"/>
    </g>
    <path id="Path_3358" data-name="Path 3358" d="M286.706,662.755a.464.464,0,0,0,.466.466h96.747a.464.464,0,0,0,.466-.466.453.453,0,0,0-.125-.317h-35.1a16.314,16.314,0,0,1-2.2-.149H287.172a.464.464,0,0,0-.466.466Z" transform="translate(-119.11 -166.734)" fill="#3f3d56" opacity="0.22"/>
    <g id="Group_3652" data-name="Group 3652" transform="translate(104.871 413.262)">
      <g id="Group_3650" data-name="Group 3650">
        <path id="Path_3359" data-name="Path 3359" d="M141.522,452.944h53.86A16.522,16.522,0,0,1,211.9,469.466v43.2a16.522,16.522,0,0,1-16.522,16.521h-53.86A16.522,16.522,0,0,1,125,512.67v-43.2A16.521,16.521,0,0,1,141.522,452.944Z" transform="translate(-124.609 -452.553)" fill="#fff"/>
        <path id="Path_3360" data-name="Path 3360" d="M124,512.061v-43.2a16.932,16.932,0,0,1,16.913-16.913h53.86a16.932,16.932,0,0,1,16.913,16.913v43.2a16.932,16.932,0,0,1-16.913,16.913h-53.86A16.932,16.932,0,0,1,124,512.061Zm16.913-59.335a16.148,16.148,0,0,0-16.13,16.13v43.2a16.148,16.148,0,0,0,16.13,16.13h53.86a16.148,16.148,0,0,0,16.13-16.13v-43.2a16.149,16.149,0,0,0-16.13-16.13Z" transform="translate(-124 -451.944)" fill="#3f3d56"/>
      </g>
    </g>
    <g id="Group_3656" data-name="Group 3656" transform="translate(57 318.32)">
      <g id="Group_3653" data-name="Group 3653">
        <path id="Path_3365" data-name="Path 3365" d="M17.522,206.944h53.86A16.522,16.522,0,0,1,87.9,223.466v43.2a16.521,16.521,0,0,1-16.522,16.522H17.522A16.521,16.521,0,0,1,1,266.67v-43.2a16.522,16.522,0,0,1,16.522-16.522h0Z" transform="translate(-0.609 -206.553)" fill="#fff"/>
        <path id="Path_3366" data-name="Path 3366" d="M0,266.061v-43.2a16.932,16.932,0,0,1,16.913-16.913h53.86a16.932,16.932,0,0,1,16.913,16.913v43.2a16.932,16.932,0,0,1-16.913,16.913H16.913A16.932,16.932,0,0,1,0,266.061Zm16.913-59.334a16.149,16.149,0,0,0-16.13,16.13v43.2a16.148,16.148,0,0,0,16.13,16.13h53.86a16.148,16.148,0,0,0,16.13-16.13v-43.2a16.149,16.149,0,0,0-16.13-16.13Z" transform="translate(0 -205.944)" fill="#3f3d56"/>
      </g>
    </g>
    <path id="Path_3370" data-name="Path 3370" d="M406.092,266.489c-.391-.391-3.521-8.607-3.521-8.607l-7.433-.391-3.4,8.019,14.355.98Z" transform="translate(-182.906 81.083)" fill="#ffb6b6"/>
    <circle id="Ellipse_250" data-name="Ellipse 250" cx="10.006" cy="10.006" r="10.006" transform="translate(202.66 322.46)" fill="#ffb6b6"/>
    <path id="Path_3371" data-name="Path 3371" d="M397.88,418.382l3.521,11.737-9.389,68.074h-6.357l-3.424-51.251-3.912,17.605,19.953,25.43-5.086,5.868L364.43,467.873l.587-43.231,2.347-6.651Z" transform="translate(-166.316 -18.012)" fill="#2f2e41"/>
    <path id="Path_3372" data-name="Path 3372" d="M392.453,229.4l-.782.039s-.7-6.233-1.109-6.6-1.153.449-1.153.449-3.222-1.8-3.319-3.754-.173-3.517-1.345-3.459-7.738,1.948-9.3,2.025-4.042-2.543-1.422-5.022a33.084,33.084,0,0,1,5.3-3.786c.371-.41,2.818-2.1,4.954-.636a8.9,8.9,0,0,0,4.872,1.327s5.138.922,4.471,3.305,1.91,6.957.853,9.359a47.1,47.1,0,0,0-2.017,6.758h0Z" transform="translate(-171.398 111.307)" fill="#2f2e41"/>
    <path id="Path_3373" data-name="Path 3373" d="M411.425,619.991l7.042.782.782,12.91a5.9,5.9,0,0,1-7.042,5.477c-6.651-.782-4.695-7.042-4.695-7.042Z" transform="translate(-192.389 -140.984)" fill="#2f2e41"/>
    <path id="Path_3374" data-name="Path 3374" d="M434.218,595.034s5.086-2.347,5.868.391l1.565,5.477s0,5.477.391,5.868,7.825,10.563,1.174,16.04c0,0-3.521.391-5.477-5.086s-7.825-10.954-7.825-10.954-1.137-2.739.8-2.543,4.676-4.5,3.894-6.064A4.966,4.966,0,0,1,434.218,595.034Z" transform="translate(-206.097 -125.221)" fill="#2f2e41"/>
    <path id="Path_3375" data-name="Path 3375" d="M273.573,406.776c-1.82-.767-2.319-3.707-1.114-6.568a7.766,7.766,0,0,1,2.141-2.978L276.006,394l-.05-.034L280,377.859a12.376,12.376,0,0,1,7.082-8.418c2.114-.9,4.121-1.062,4.7,1.093.968,3.575-5.337,15.09-9.139,21.57l-2.962,7.268a7.768,7.768,0,0,1-.635,3.614c-1.2,2.86-3.656,4.557-5.476,3.791h0Z" transform="translate(-109.479 12.743)" fill="#ffb6b6"/>
    <path id="Path_3376" data-name="Path 3376" d="M374.776,274.491l12.911.391,12.519,5.477-1.956,32.472s2.347,7.433,1.174,8.607,0,6.435-.782,6.543,0,5.767,0,5.767-10.954-3.7-20.344-1.355-12.519-1.565-12.519-1.565-2.347-9.389-2.347-11.346v-40l11.346-4.99Z" transform="translate(-165.702 70.43)" fill="#c7c0f9"/>
    <path id="Path_3377" data-name="Path 3377" d="M319.924,286.51s-5.477-1.565-8.216,2.347-4.3,3.912-4.3,9c0,0-16.04,22.691-15.258,25.039l-3.717,6.064,9.389,5.086s3.325-3.325,3.325-6.455,9.389-11.737,9.389-11.737,8.216-10.563,8.607-14.475S319.924,286.51,319.924,286.51Z" transform="translate(-119.717 63.317)" fill="#c7c0f9"/>
    <g id="Group_3659" data-name="Group 3659" transform="translate(229.955 419.913)">
      <g id="Group_3657" data-name="Group 3657">
        <path id="Path_3378" data-name="Path 3378" d="M466.522,470.944h53.86A16.522,16.522,0,0,1,536.9,487.466v43.2a16.522,16.522,0,0,1-16.522,16.522h-53.86A16.522,16.522,0,0,1,450,530.67v-43.2a16.521,16.521,0,0,1,16.521-16.521Z" transform="translate(-449.218 -470.162)" fill="#fff"/>
        <path id="Path_3379" data-name="Path 3379" d="M448,529.061v-43.2a16.932,16.932,0,0,1,16.913-16.913h53.86a16.932,16.932,0,0,1,16.913,16.913v43.2a16.932,16.932,0,0,1-16.913,16.913h-53.86A16.932,16.932,0,0,1,448,529.061Zm16.913-59.335a16.149,16.149,0,0,0-16.13,16.13v43.2a16.148,16.148,0,0,0,16.13,16.13h53.86a16.148,16.148,0,0,0,16.13-16.13v-43.2a16.149,16.149,0,0,0-16.13-16.13h-53.86Z" transform="translate(-448 -468.944)" fill="#3f3d56"/>
      </g>
    </g>
    <g id="Group_3660" data-name="Group 3660" transform="translate(227.395 350.326)">
      <path id="Path_3384" data-name="Path 3384" d="M468.561,424.19c1.972-.1,3.439-2.7,3.277-5.8a7.767,7.767,0,0,0-1-3.528l-.228-3.511.059-.015,1.666-16.528a12.375,12.375,0,0,0-3.8-10.322c-1.684-1.563-3.516-2.4-4.8-.569-2.124,3.034-.1,16.006,1.276,23.391l.319,7.842a7.767,7.767,0,0,0-.63,3.615c.162,3.1,1.892,5.528,3.865,5.424Z" transform="translate(-453.777 -346.075)" fill="#ffb6b6"/>
      <path id="Path_3385" data-name="Path 3385" d="M444.178,288.807s5.683.387,6.931,5,2.72,5.141.994,9.925c0,0,7.387,26.788,5.854,28.731l1.438,6.965-10.558,1.6s-2-4.257-.937-7.2-4.849-14.227-4.849-14.227-4.143-12.725-3.183-16.537,4.31-14.25,4.31-14.25h0Z" transform="translate(-439.725 -288.807)" fill="#c7c0f9"/>
    </g>
    <path id="Icon_metro-coins" data-name="Icon metro-coins" d="M51.84,38.351H29.769a14.2,14.2,0,0,0,1.471-3.6h20.6a1.8,1.8,0,0,1,0,3.6Zm0-5.407H31.589a13.122,13.122,0,0,0,0-3.6H51.84a1.8,1.8,0,0,1,0,3.6Zm0-5.407H31.24a14.271,14.271,0,0,0-1.471-3.6H51.84a1.8,1.8,0,0,1,0,3.6Zm0-5.407H28.54a14.434,14.434,0,0,0-4.27-3.6H51.84a1.8,1.8,0,0,1,0,3.6Zm0-5.407H23a1.8,1.8,0,1,1,0-3.6H51.84a1.8,1.8,0,0,1,0,3.6Zm0-5.407H23a1.8,1.8,0,1,1,0-3.6H51.84a1.8,1.8,0,0,1,0,3.6ZM30.212,31.142A12.616,12.616,0,1,1,17.6,18.526,12.617,12.617,0,0,1,30.212,31.142Zm-8.15,1.372a3.853,3.853,0,0,0-.71-1.125,4.645,4.645,0,0,0-1-.822,11.549,11.549,0,0,0-1.148-.615q-.571-.263-1.148-.512a7.491,7.491,0,0,1-1.007-.517,2.539,2.539,0,0,1-.71-.631,1.361,1.361,0,0,1-.265-.84,1.652,1.652,0,0,1,.117-.616,1.3,1.3,0,0,1,.36-.5,1.746,1.746,0,0,1,.6-.324A2.706,2.706,0,0,1,18,25.9a4.048,4.048,0,0,1,1.137.15,6.5,6.5,0,0,1,.912.337q.395.184.665.341a.933.933,0,0,0,.395.155.276.276,0,0,0,.2-.067.444.444,0,0,0,.112-.214,2.116,2.116,0,0,0,.056-.371c.011-.151.016-.337.016-.555,0-.195,0-.359-.011-.488a2.552,2.552,0,0,0-.038-.328,1.023,1.023,0,0,0-.067-.209.853.853,0,0,0-.153-.189,1.8,1.8,0,0,0-.461-.279,5.337,5.337,0,0,0-.8-.3,7.081,7.081,0,0,0-.968-.213c-.07-.011-.142-.007-.213-.016V21.782H17v1.864a6.5,6.5,0,0,0-.948.2,4.458,4.458,0,0,0-1.554.782,3.781,3.781,0,0,0-1.047,1.316,4.62,4.62,0,0,0-.119,3.4,3.867,3.867,0,0,0,.7,1.132,4.624,4.624,0,0,0,.984.82,10.2,10.2,0,0,0,1.137.615c.391.18.77.35,1.137.512a7.563,7.563,0,0,1,.984.517,2.7,2.7,0,0,1,.7.631,1.367,1.367,0,0,1,.27.851,1.892,1.892,0,0,1-.157.78,1.58,1.58,0,0,1-.456.586,2.141,2.141,0,0,1-.725.366,3.34,3.34,0,0,1-.97.13A5.074,5.074,0,0,1,15.5,36.1a6.636,6.636,0,0,1-1.076-.413,7.122,7.122,0,0,1-.737-.411.943.943,0,0,0-.445-.186.327.327,0,0,0-.2.061.407.407,0,0,0-.135.209,1.746,1.746,0,0,0-.074.384c-.016.159-.023.353-.023.586a3.993,3.993,0,0,0,.061.795.83.83,0,0,0,.209.422,2.4,2.4,0,0,0,.478.335,4.929,4.929,0,0,0,.827.362,8.435,8.435,0,0,0,1.143.3,7.6,7.6,0,0,0,1.4.121c.022,0,.041,0,.065,0v1.736h1.772V38.423c.085-.022.175-.032.258-.056a5.073,5.073,0,0,0,1.712-.872A4.17,4.17,0,0,0,21.9,36.049a4.505,4.505,0,0,0,.425-2.015,3.935,3.935,0,0,0-.267-1.521Zm6.477,7.64h23.3a1.8,1.8,0,0,1,0,3.6H24.27a14.434,14.434,0,0,0,4.27-3.6Z" transform="translate(71.532 332.768)" fill="#2541cd" opacity="0.61"/>
    <path id="Icon_metro-weather5" data-name="Icon metro-weather5" d="M31.851,6.613A8.123,8.123,0,0,0,30.7,6.7a11.621,11.621,0,0,0-18.77,0,8.123,8.123,0,0,0-1.156-.082,8.2,8.2,0,0,0,0,16.4,8.113,8.113,0,0,0,2.907-.537,11.561,11.561,0,0,0,15.268,0,8.113,8.113,0,0,0,2.907.537,8.2,8.2,0,1,0,0-16.4ZM9.6,25.352a2.342,2.342,0,1,0,2.342,2.342A2.341,2.341,0,0,0,9.6,25.352ZM21.31,27.695a2.342,2.342,0,1,0,2.342,2.342A2.341,2.341,0,0,0,21.31,27.695Zm11.712-2.342a2.342,2.342,0,1,0,2.342,2.342A2.341,2.341,0,0,0,33.022,25.352Zm-4.685,9.37a2.342,2.342,0,1,0,2.342,2.342A2.341,2.341,0,0,0,28.338,34.722Zm-14.055,0a2.342,2.342,0,1,0,2.342,2.342A2.341,2.341,0,0,0,14.283,34.722Z" transform="translate(127.289 431.11)" fill="#1c8d2b" opacity="0.87"/>
    <path id="Icon_material-contacts" data-name="Icon material-contacts" d="M32.2,0H6.244V3.244H32.2ZM6.244,38.927H32.2V35.683H6.244ZM32.2,6.488H6.244A3.253,3.253,0,0,0,3,9.732V29.2a3.253,3.253,0,0,0,3.244,3.244H32.2A3.253,3.253,0,0,0,35.439,29.2V9.732A3.253,3.253,0,0,0,32.2,6.488ZM19.22,10.948A3.649,3.649,0,1,1,15.57,14.6,3.655,3.655,0,0,1,19.22,10.948Zm8.11,16.625H11.11V25.141c0-2.709,5.4-4.055,8.11-4.055s8.11,1.346,8.11,4.055Z" transform="translate(254.578 440.08)" fill="#25b4f1"/>
  </g>
</svg>
