<svg xmlns="http://www.w3.org/2000/svg" width="22.5" height="18" viewBox="0 0 22.5 18">
  <path id="Icon_awesome-umbrella-beach" data-name="Icon awesome-umbrella-beach" d="M4.056,4.813,7.646,6.12A12.709,12.709,0,0,1,12.533.013,10.519,10.519,0,0,0,3.8,3.944a.563.563,0,0,0,.261.869ZM8.706,6.506,17.09,9.558c1.257-4.267.657-8.144-1.5-8.929a2.353,2.353,0,0,0-.812-.141c-2.04,0-4.509,2.432-6.074,6.017Zm9.627-4.379a7.974,7.974,0,0,1,.464,1.94,15.068,15.068,0,0,1-.666,5.87l3.608,1.313a.562.562,0,0,0,.758-.5,10.526,10.526,0,0,0-4.164-8.626Zm1.354,13.622h-8.4L13.57,9.474,11.456,8.7,8.893,15.749H.562A.562.562,0,0,0,0,16.311v1.125A.563.563,0,0,0,.562,18H19.687a.563.563,0,0,0,.562-.563V16.311a.562.562,0,0,0-.562-.562Z" transform="translate(0 0)" opacity="0.8"/>
</svg>
