<svg xmlns="http://www.w3.org/2000/svg" width="23.473" height="20.865" viewBox="0 0 23.473 20.865">
  <path id="Icon_awesome-hotel" data-name="Icon awesome-hotel" d="M22.821,2.608a.652.652,0,0,0,.652-.652V.652A.652.652,0,0,0,22.821,0H.652A.652.652,0,0,0,0,.652v1.3a.652.652,0,0,0,.652.652H1.3V18.257H.652A.652.652,0,0,0,0,18.909v1.3a.652.652,0,0,0,.652.652h9.78V17.6a.654.654,0,0,1,.652-.652h1.3a.654.654,0,0,1,.652.652v3.26h9.78a.652.652,0,0,0,.652-.652v-1.3a.652.652,0,0,0-.652-.652h-.652V2.608ZM10.432,4.434a.561.561,0,0,1,.522-.522h1.565a.561.561,0,0,1,.522.522V6a.561.561,0,0,1-.522.522H10.954A.561.561,0,0,1,10.432,6V4.434Zm0,3.912a.561.561,0,0,1,.522-.522h1.565a.561.561,0,0,1,.522.522V9.911a.561.561,0,0,1-.522.522H10.954a.561.561,0,0,1-.522-.522ZM5.216,4.434a.561.561,0,0,1,.522-.522H7.3a.561.561,0,0,1,.522.522V6A.561.561,0,0,1,7.3,6.52H5.738A.561.561,0,0,1,5.216,6Zm2.086,6H5.738a.561.561,0,0,1-.522-.522V8.346a.561.561,0,0,1,.522-.522H7.3a.561.561,0,0,1,.522.522V9.911A.561.561,0,0,1,7.3,10.432Zm.522,5.216a3.912,3.912,0,1,1,7.824,0ZM18.257,9.911a.561.561,0,0,1-.522.522H16.17a.561.561,0,0,1-.522-.522V8.346a.561.561,0,0,1,.522-.522h1.565a.561.561,0,0,1,.522.522Zm0-3.912a.561.561,0,0,1-.522.522H16.17A.561.561,0,0,1,15.649,6V4.434a.561.561,0,0,1,.522-.522h1.565a.561.561,0,0,1,.522.522Z" opacity="0.8"/>
</svg>
