<svg xmlns="http://www.w3.org/2000/svg" width="104" height="104" viewBox="0 0 104 104">
  <g id="Group_3499" data-name="Group 3499" transform="translate(-155 -830)">
    <circle id="Ellipse_203" data-name="Ellipse 203" cx="52" cy="52" r="52" transform="translate(155 830)" fill="#10394e"/>
    <path id="Icon_awesome-arrow-alt-circle-up" data-name="Icon awesome-arrow-alt-circle-up" d="M.563,18A17.438,17.438,0,1,1,18,35.438,17.434,17.434,0,0,1,.563,18Zm20.531,8.156V18h4.985a.844.844,0,0,0,.6-1.441L18.6,8.522a.836.836,0,0,0-1.188,0L9.323,16.559A.844.844,0,0,0,9.921,18h4.985v8.156A.846.846,0,0,0,15.75,27h4.5A.846.846,0,0,0,21.094,26.156Z" transform="translate(189 850)" fill="#f1f1f1"/>
  </g>
</svg>
